<svg xmlns="http://www.w3.org/2000/svg" viewBox="0 0 64 64" role="img" aria-labelledby="title">
  <title>OpenAI Logo</title>
  <circle cx="32" cy="32" r="30" fill="#412991"/>
  <path d="M32 12a12 12 0 0 0-12 12v3.09A12 12 0 0 0 15 36a12 12 0 0 0 6 10.39V52h6v-4h4v4h6v-5.61A12 12 0 0 0 49 36a12 12 0 0 0-5-9.91V24A12 12 0 0 0 32 12zm0 6a6 6 0 0 1 6 6v4h2.5A6 6 0 0 1 44 34a6 6 0 0 1-3.12 5.29L38 41v5h-2v-4h-8v4h-2v-5l-2.88-1.71A6 6 0 0 1 20 34a6 6 0 0 1 3.5-5.46L26 27v-3a6 6 0 0 1 6-6z" fill="#fff"/>
</svg>
